<?xml version="1.0" encoding="utf-8" ?><svg xmlns="http://www.w3.org/2000/svg" xmlns:xlink="http://www.w3.org/1999/xlink" width="1024" height="1024" viewBox="0 0 1024 1024" xmlns:c2pa="http://c2pa.org/manifest"><metadata><c2pa:manifest>AAAk4Wp1bWIAAAAeanVtZGMycGEAEQAQgAAAqgA4m3EDYzJwYQAAAA6CanVtYgAAAEdqdW1kYzJtYQARABCAAACqADibcQN1cm46YzJwYToyZTdkOTdlOS03Mjg2LTRlZjYtODQyZS1mZmQ4MzI0MGRhYWMAAAADs2p1bWIAAAApanVtZGMyYXMAEQAQgAAAqgA4m3EDYzJwYS5hc3NlcnRpb25zAAAAAMlqdW1iAAAARGp1bWRjYm9yABEAEIAAAKoAOJtxE2MycGEuaW5ncmVkaWVudC52MwAAAAAYYzJzaJl2n7jPv8IiMzv7bqP1h1YAAAB9Y2JvcqRscmVsYXRpb25zaGlwaHBhcmVudE9maGRjOnRpdGxlZnNvdXJjZWlkYzpmb3JtYXRqaW1hZ2Uvd2VicGppbnN0YW5jZUlEeCx4bXA6aWlkOjE0N2RmODM4LTVlNWMtNDQxOC05ZDM0LWZiZGQ4NDZkMzg1YgAAAfVqdW1iAAAAQWp1bWRjYm9yABEAEIAAAKoAOJtxE2MycGEuYWN0aW9ucy52MgAAAAAYYzJzaJhE6hIbTr0gSFMkYo5vDAcAAAGsY2JvcqFnYWN0aW9uc4KiZmFjdGlvbmtjMnBhLm9wZW5lZGpwYXJhbWV0ZXJzoWtpbmdyZWRpZW50c4GiY3VybHgtc2VsZiNqdW1iZj1jMnBhLmFzc2VydGlvbnMvYzJwYS5pbmdyZWRpZW50LnYzZGhhc2hYIO09/l9h+8g4xfiwZ0ycnvThgKYdq4FnutrHWJslKu/JpGZhY3Rpb25rYzJwYS5lZGl0ZWRqcGFyYW1ldGVyc6FraW5ncmVkaWVudHOBomN1cmx4LXNlbGYjanVtYmY9YzJwYS5hc3NlcnRpb25zL2MycGEuaW5ncmVkaWVudC52M2RoYXNoWCDtPf5fYfvIOMX4sGdMnJ704YCmHauBZ7rax1ibJSrvyXFkaWdpdGFsU291cmNlVHlwZXhTaHR0cDovL2N2LmlwdGMub3JnL25ld3Njb2Rlcy9kaWdpdGFsc291cmNldHlwZS9jb21wb3NpdGVXaXRoVHJhaW5lZEFsZ29yaXRobWljTWVkaWFrZGVzY3JpcHRpb252Q3JlYXRlZCBieSBSZWNyYWZ0IEFJLgAAAMRqdW1iAAAAQGp1bWRjYm9yABEAEIAAAKoAOJtxE2MycGEuaGFzaC5kYXRhAAAAABhjMnNoBjuX/vsr7i4JvIAZ0vxqdQAAAHxjYm9ypWpleGNsdXNpb25zgaJlc3RhcnQY22ZsZW5ndGgZE4xkbmFtZW5qdW1iZiBtYW5pZmVzdGNhbGdmc2hhMjU2ZGhhc2hYIM0E75tJzGTUPKoaX0OPRxIPb83XTo3DKCgiu9KWP2u5Y3BhZEkAAAAAAAAAAAAAAAKkanVtYgAAACdqdW1kYzJjbAARABCAAACqADibcQNjMnBhLmNsYWltLnYyAAAAAnVjYm9yp2ppbnN0YW5jZUlEeCx4bXA6aWlkOmZhMWExZDlkLTlhNjUtNDA2OS04N2NlLTc1YTg5MTEyMDRmM3RjbGFpbV9nZW5lcmF0b3JfaW5mb6NkbmFtZWpyZWNyYWZ0LmFpZ3ZlcnNpb254KDgxY2U4MmUyYzVjM2NiZmJlOGM2ZmJlMTc5ZDVmOGQ5MWM0MDljZTF3b3JnLmNvbnRlbnRhdXRoLmMycGFfcnNmMC45MC43aXNpZ25hdHVyZXhNc2VsZiNqdW1iZj0vYzJwYS91cm46YzJwYToyZTdkOTdlOS03Mjg2LTRlZjYtODQyZS1mZmQ4MzI0MGRhYWMvYzJwYS5zaWduYXR1cmVyY3JlYXRlZF9hc3NlcnRpb25zgqJjdXJseCpzZWxmI2p1bWJmPWMycGEuYXNzZXJ0aW9ucy9jMnBhLmFjdGlvbnMudjJkaGFzaFggdsE2+PIjbxLbLS2qgftT+Abt+tHNfQnFVVQPXxOB8kaiY3VybHgpc2VsZiNqdW1iZj1jMnBhLmFzc2VydGlvbnMvYzJwYS5oYXNoLmRhdGFkaGFzaFgg2ZcbL2Xlrmeo31lXukWHEF8H71On+kfx7s7l3HlHLKtzZ2F0aGVyZWRfYXNzZXJ0aW9uc4GiY3VybHgtc2VsZiNqdW1iZj1jMnBhLmFzc2VydGlvbnMvYzJwYS5pbmdyZWRpZW50LnYzZGhhc2hYIO09/l9h+8g4xfiwZ0ycnvThgKYdq4FnutrHWJslKu/JaGRjOnRpdGxleBpSZWNyYWZ0IEFJIEdlbmVyYXRlZCBJbWFnZWNhbGdmc2hhMjU2AAAH3Gp1bWIAAAAoanVtZGMyY3MAEQAQgAAAqgA4m3EDYzJwYS5zaWduYXR1cmUAAAAHrGNib3LShFkDsKIBJhghglkB5zCCAeMwggGJoAMCAQICCQC33lpjQ1FuejAKBggqhkjOPQQDAjBAMR8wHQYDVQQDDBZSZWNyYWZ0IFN0YWdpbmcgRGV2IENBMRAwDgYDVQQKDAdSZWNyYWZ0MQswCQYDVQQGEwJVUzAeFw0yNjA2MTIxOTQzNTBaFw0yNzA2MTIxOTQzNTBaMDcxCzAJBgNVBAYTAlVTMRMwEQYDVQQKEwpSZWNyYWZ0IEFJMRMwEQYDVQQDEwpyZWNyYWZ0LmFpMFkwEwYHKoZIzj0CAQYIKoZIzj0DAQcDQgAESmk1WwArIPw3hty3jsWHSA/1QOhBRu9xOjpJ2/iiIghScoEVM+Lnjds/7dqmG+giFL0vEb4DoogpX6KrGLcPNaN1MHMwDAYDVR0TAQH/BAIwADAOBgNVHQ8BAf8EBAMCBsAwEwYDVR0lBAwwCgYIKwYBBQUHAwQwHQYDVR0OBBYEFC8x6QXp/eki9cuCDx2vDJDLIV39MB8GA1UdIwQYMBaAFAILKjgayqqXSv/5v5MWaO2UeHm3MAoGCCqGSM49BAMCA0gAMEUCIFPISltGl775PEkIFRTZGsevWJvWnvBrE9kWU0MPgedQAiEAtA+AZBKEQ+DdK9mUZDctB2Wlt1iAsv0GRjfeYpReMsxZAb0wggG5MIIBX6ADAgECAgkAnPloO0+gE28wCgYIKoZIzj0EAwIwQDEfMB0GA1UEAwwWUmVjcmFmdCBTdGFnaW5nIERldiBDQTEQMA4GA1UECgwHUmVjcmFmdDELMAkGA1UEBhMCVVMwHhcNMjYwNjEyMTk0MDE2WhcNMjgwNjExMTk0MDE2WjBAMR8wHQYDVQQDDBZSZWNyYWZ0IFN0YWdpbmcgRGV2IENBMRAwDgYDVQQKDAdSZWNyYWZ0MQswCQYDVQQGEwJVUzBZMBMGByqGSM49AgEGCCqGSM49AwEHA0IABEPSEAZXFWymij2K0EnzoS/9NLO8VAwu0YpyLizvyNZPfcvcoeqFhfZD8Wj/rcdb9T3ji98q1arie99B9GRog8qjQjBAMA8GA1UdEwEB/wQFMAMBAf8wDgYDVR0PAQH/BAQDAgGGMB0GA1UdDgQWBBQCCyo4Gsqql0r/+b+TFmjtlHh5tzAKBggqhkjOPQQDAgNIADBFAiBUMDSJi5WA3kIY4BfmYqk24HLs0qpjicN0NpUP4bvNxQIhAPTvHC5v8X6FS6geI7XW7h84t1i/qdkTfg0RpMKWLMFboWNwYWRZA6QAAAAAAAAAAAAAAAAAAAAAAAAAAAAAAAAAAAAAAAAAAAAAAAAAAAAAAAAAAAAAAAAAAAAAAAAAAAAAAAAAAAAAAAAAAAAAAAAAAAAAAAAAAAAAAAAAAAAAAAAAAAAAAAAAAAAAAAAAAAAAAAAAAAAAAAAAAAAAAAAAAAAAAAAAAAAAAAAAAAAAAAAAAAAAAAAAAAAAAAAAAAAAAAAAAAAAAAAAAAAAAAAAAAAAAAAAAAAAAAAAAAAAAAAAAAAAAAAAAAAAAAAAAAAAAAAAAAAAAAAAAAAAAAAAAAAAAAAAAAAAAAAAAAAAAAAAAAAAAAAAAAAAAAAAAAAAAAAAAAAAAAAAAAAAAAAAAAAAAAAAAAAAAAAAAAAAAAAAAAAAAAAAAAAAAAAAAAAAAAAAAAAAAAAAAAAAAAAAAAAAAAAAAAAAAAAAAAAAAAAAAAAAAAAAAAAAAAAAAAAAAAAAAAAAAAAAAAAAAAAAAAAAAAAAAAAAAAAAAAAAAAAAAAAAAAAAAAAAAAAAAAAAAAAAAAAAAAAAAAAAAAAAAAAAAAAAAAAAAAAAAAAAAAAAAAAAAAAAAAAAAAAAAAAAAAAAAAAAAAAAAAAAAAAAAAAAAAAAAAAAAAAAAAAAAAAAAAAAAAAAAAAAAAAAAAAAAAAAAAAAAAAAAAAAAAAAAAAAAAAAAAAAAAAAAAAAAAAAAAAAAAAAAAAAAAAAAAAAAAAAAAAAAAAAAAAAAAAAAAAAAAAAAAAAAAAAAAAAAAAAAAAAAAAAAAAAAAAAAAAAAAAAAAAAAAAAAAAAAAAAAAAAAAAAAAAAAAAAAAAAAAAAAAAAAAAAAAAAAAAAAAAAAAAAAAAAAAAAAAAAAAAAAAAAAAAAAAAAAAAAAAAAAAAAAAAAAAAAAAAAAAAAAAAAAAAAAAAAAAAAAAAAAAAAAAAAAAAAAAAAAAAAAAAAAAAAAAAAAAAAAAAAAAAAAAAAAAAAAAAAAAAAAAAAAAAAAAAAAAAAAAAAAAAAAAAAAAAAAAAAAAAAAAAAAAAAAAAAAAAAAAAAAAAAAAAAAAAAAAAAAAAAAAAAAAAAAAAAAAAAAAAAAAAAAAAAAAAAAAAAAAAAAAAAAAAAAAAAAAAAAAAAAAAAAAAAAAAAAAAAAAAAAAAAAAAAAAAAAAAAAAAAAAAAAAAAAAAAAAAAAAAAAAAAAAAAAAAAAAAAAAAAAAAAAAAAAAAAAAAAAAAAAAAAAAAAAAAAAAAAAPZYQAzXqqHd3VFKTtgVTwPAA6uldhMTYu6uwU96Z2fUt1jpZFwN+qPXWbeYvWiLwUuzyRta52TJP0/onkfuE9XThe4AABY5anVtYgAAAEdqdW1kYzJtYQARABCAAACqADibcQN1cm46YzJwYTphNjM3ZGJmZS04MzYxLTQ5YTQtYTQwNi1kOTUzODgwYWJjYzEAAAALeGp1bWIAAAApanVtZGMyYXMAEQAQgAAAqgA4m3EDYzJwYS5hc3NlcnRpb25zAAAACJVqdW1iAAAARGp1bWRjYm9yABEAEIAAAKoAOJtxE2MycGEuaW5ncmVkaWVudC52MwAAAAAYYzJzaOFYiDE0hBEDBXSMEAUqXAcAAAhJY2JvcqdscmVsYXRpb25zaGlwaHBhcmVudE9maGRjOnRpdGxlZnNvdXJjZWlkYzpmb3JtYXRtaW1hZ2Uvc3ZnK3htbHF2YWxpZGF0aW9uUmVzdWx0c6JuYWN0aXZlTWFuaWZlc3SjZ3N1Y2Nlc3OGo2Rjb2RleB1jbGFpbVNpZ25hdHVyZS5pbnNpZGVWYWxpZGl0eWN1cmx4TXNlbGYjanVtYmY9L2MycGEvdXJuOmMycGE6MmU3ZDk3ZTktNzI4Ni00ZWY2LTg0MmUtZmZkODMyNDBkYWFjL2MycGEuc2lnbmF0dXJla2V4cGxhbmF0aW9udWNsYWltIHNpZ25hdHVyZSB2YWxpZKNkY29kZXgYY2xhaW1TaWduYXR1cmUudmFsaWRhdGVkY3VybHhNc2VsZiNqdW1iZj0vYzJwYS91cm46YzJwYToyZTdkOTdlOS03Mjg2LTRlZjYtODQyZS1mZmQ4MzI0MGRhYWMvYzJwYS5zaWduYXR1cmVrZXhwbGFuYXRpb251Y2xhaW0gc2lnbmF0dXJlIHZhbGlko2Rjb2RleBlhc3NlcnRpb24uaGFzaGVkVVJJLm1hdGNoY3VybHhec2VsZiNqdW1iZj0vYzJwYS91cm46YzJwYToyZTdkOTdlOS03Mjg2LTRlZjYtODQyZS1mZmQ4MzI0MGRhYWMvYzJwYS5hc3NlcnRpb25zL2MycGEuYWN0aW9ucy52MmtleHBsYW5hdGlvbng+aGFzaGVkIHVyaSBtYXRjaGVkOiBzZWxmI2p1bWJmPWMycGEuYXNzZXJ0aW9ucy9jMnBhLmFjdGlvbnMudjKjZGNvZGV4GWFzc2VydGlvbi5oYXNoZWRVUkkubWF0Y2hjdXJseF1zZWxmI2p1bWJmPS9jMnBhL3VybjpjMnBhOjJlN2Q5N2U5LTcyODYtNGVmNi04NDJlLWZmZDgzMjQwZGFhYy9jMnBhLmFzc2VydGlvbnMvYzJwYS5oYXNoLmRhdGFrZXhwbGFuYXRpb254PWhhc2hlZCB1cmkgbWF0Y2hlZDogc2VsZiNqdW1iZj1jMnBhLmFzc2VydGlvbnMvYzJwYS5oYXNoLmRhdGGjZGNvZGV4GWFzc2VydGlvbi5oYXNoZWRVUkkubWF0Y2hjdXJseGFzZWxmI2p1bWJmPS9jMnBhL3VybjpjMnBhOjJlN2Q5N2U5LTcyODYtNGVmNi04NDJlLWZmZDgzMjQwZGFhYy9jMnBhLmFzc2VydGlvbnMvYzJwYS5pbmdyZWRpZW50LnYza2V4cGxhbmF0aW9ueEFoYXNoZWQgdXJpIG1hdGNoZWQ6IHNlbGYjanVtYmY9YzJwYS5hc3NlcnRpb25zL2MycGEuaW5ncmVkaWVudC52M6NkY29kZXgYYXNzZXJ0aW9uLmRhdGFIYXNoLm1hdGNoY3VybHhdc2VsZiNqdW1iZj0vYzJwYS91cm46YzJwYToyZTdkOTdlOS03Mjg2LTRlZjYtODQyZS1mZmQ4MzI0MGRhYWMvYzJwYS5hc3NlcnRpb25zL2MycGEuaGFzaC5kYXRha2V4cGxhbmF0aW9ub2RhdGEgaGFzaCB2YWxpZG1pbmZvcm1hdGlvbmFsgGdmYWlsdXJlgaNkY29kZXgbc2lnbmluZ0NyZWRlbnRpYWwudW50cnVzdGVkY3VybHhNc2VsZiNqdW1iZj0vYzJwYS91cm46YzJwYToyZTdkOTdlOS03Mjg2LTRlZjYtODQyZS1mZmQ4MzI0MGRhYWMvYzJwYS5zaWduYXR1cmVrZXhwbGFuYXRpb254HXNpZ25pbmcgY2VydGlmaWNhdGUgdW50cnVzdGVkcGluZ3JlZGllbnREZWx0YXOBonZpbmdyZWRpZW50QXNzZXJ0aW9uVVJJeGFzZWxmI2p1bWJmPS9jMnBhL3VybjpjMnBhOjJlN2Q5N2U5LTcyODYtNGVmNi04NDJlLWZmZDgzMjQwZGFhYy9jMnBhLmFzc2VydGlvbnMvYzJwYS5pbmdyZWRpZW50LnYzcHZhbGlkYXRpb25EZWx0YXOjZ3N1Y2Nlc3OAbWluZm9ybWF0aW9uYWyBo2Rjb2RleBxpbmdyZWRpZW50LnVua25vd25Qcm92ZW5hbmNlY3VybHhhc2VsZiNqdW1iZj0vYzJwYS91cm46YzJwYToyZTdkOTdlOS03Mjg2LTRlZjYtODQyZS1mZmQ4MzI0MGRhYWMvYzJwYS5hc3NlcnRpb25zL2MycGEuaW5ncmVkaWVudC52M2tleHBsYW5hdGlvbngrc291cmNlOiBpbmdyZWRpZW50IGRvZXMgbm90IGhhdmUgcHJvdmVuYW5jZWdmYWlsdXJlgGppbnN0YW5jZUlEeCx4bXA6aWlkOmU2ZTI3ZTY1LWRlZWEtNGYzNC1hMjFiLWE5YTc0OGJiZWE0Ym5hY3RpdmVNYW5pZmVzdKNjdXJseD5zZWxmI2p1bWJmPS9jMnBhL3VybjpjMnBhOjJlN2Q5N2U5LTcyODYtNGVmNi04NDJlLWZmZDgzMjQwZGFhY2NhbGdmc2hhMjU2ZGhhc2hYINcwfDewDsGf4SIkKr/SwSA6ynheEIwlxAWsT7tcIzhcbmNsYWltU2lnbmF0dXJlo2N1cmx4TXNlbGYjanVtYmY9L2MycGEvdXJuOmMycGE6MmU3ZDk3ZTktNzI4Ni00ZWY2LTg0MmUtZmZkODMyNDBkYWFjL2MycGEuc2lnbmF0dXJlY2FsZ2ZzaGEyNTZkaGFzaFggrvsxl2gDZK+MLJ2M+aYbDwB9MkZJsDQoxAeXPOge6WcAAAHuanVtYgAAAEFqdW1kY2JvcgARABCAAACqADibcRNjMnBhLmFjdGlvbnMudjIAAAAAGGMyc2hFAIrOTRzKB78D/ruefAftAAABpWNib3KhZ2FjdGlvbnOComZhY3Rpb25rYzJwYS5vcGVuZWRqcGFyYW1ldGVyc6FraW5ncmVkaWVudHOBomN1cmx4LXNlbGYjanVtYmY9YzJwYS5hc3NlcnRpb25zL2MycGEuaW5ncmVkaWVudC52M2RoYXNoWCD3va7MmwimiefLyHz9tTa2raZ0TQFq6Gfh/1WtUQOEZaRmYWN0aW9ubGMycGEuY3JlYXRlZGpwYXJhbWV0ZXJzoWtpbmdyZWRpZW50c4GiY3VybHgtc2VsZiNqdW1iZj1jMnBhLmFzc2VydGlvbnMvYzJwYS5pbmdyZWRpZW50LnYzZGhhc2hYIPe9rsybCKaJ58vIfP21NratpnRNAWroZ+H/Va1RA4RlcWRpZ2l0YWxTb3VyY2VUeXBleEFodHRwOi8vY3YuaXB0Yy5vcmcvbmV3c2NvZGVzL2RpZ2l0YWxzb3VyY2V0eXBlL2NvbXBvc2l0ZVN5bnRoZXRpY2tkZXNjcmlwdGlvbngfQ29tcG9zZWQgaW4gdGhlIFJlY3JhZnQgZWRpdG9yLgAAAMRqdW1iAAAAQGp1bWRjYm9yABEAEIAAAKoAOJtxE2MycGEuaGFzaC5kYXRhAAAAABhjMnNokIOBsA5Tdx2uvjLiLw0d4AAAAHxjYm9ypWpleGNsdXNpb25zgaJlc3RhcnQY7GZsZW5ndGgZMSxkbmFtZW5qdW1iZiBtYW5pZmVzdGNhbGdmc2hhMjU2ZGhhc2hYICof605VQjXmDgdhHSLqFpKbEz0JdQwjmAmmS7ZzyIj6Y3BhZEkAAAAAAAAAAAAAAAKWanVtYgAAACdqdW1kYzJjbAARABCAAACqADibcQNjMnBhLmNsYWltLnYyAAAAAmdjYm9yp2ppbnN0YW5jZUlEeCx4bXA6aWlkOjhmMWU2MzdmLTkwZmYtNGRhMS04ODg1LWRkOWM4ZTYxYjUxMXRjbGFpbV9nZW5lcmF0b3JfaW5mb6NkbmFtZWpyZWNyYWZ0LmFpZ3ZlcnNpb254KDgxY2U4MmUyYzVjM2NiZmJlOGM2ZmJlMTc5ZDVmOGQ5MWM0MDljZTF3b3JnLmNvbnRlbnRhdXRoLmMycGFfcnNmMC45MC43aXNpZ25hdHVyZXhNc2VsZiNqdW1iZj0vYzJwYS91cm46YzJwYTphNjM3ZGJmZS04MzYxLTQ5YTQtYTQwNi1kOTUzODgwYWJjYzEvYzJwYS5zaWduYXR1cmVyY3JlYXRlZF9hc3NlcnRpb25zgqJjdXJseCpzZWxmI2p1bWJmPWMycGEuYXNzZXJ0aW9ucy9jMnBhLmFjdGlvbnMudjJkaGFzaFgg1/qbhz87XpS2f2o6yULV/gkp227XWRyzItvygE2UYtiiY3VybHgpc2VsZiNqdW1iZj1jMnBhLmFzc2VydGlvbnMvYzJwYS5oYXNoLmRhdGFkaGFzaFggVPxUYsY/eY5SvrNyJgvC0XubAuYXxsYW+238Dv4eQZFzZ2F0aGVyZWRfYXNzZXJ0aW9uc4GiY3VybHgtc2VsZiNqdW1iZj1jMnBhLmFzc2VydGlvbnMvYzJwYS5pbmdyZWRpZW50LnYzZGhhc2hYIPe9rsybCKaJ58vIfP21NratpnRNAWroZ+H/Va1RA4RlaGRjOnRpdGxlbVJlY3JhZnQgSW1hZ2VjYWxnZnNoYTI1NgAAB9xqdW1iAAAAKGp1bWRjMmNzABEAEIAAAKoAOJtxA2MycGEuc2lnbmF0dXJlAAAAB6xjYm9y0oRZA7CiASYYIYJZAecwggHjMIIBiaADAgECAgkAt95aY0NRbnowCgYIKoZIzj0EAwIwQDEfMB0GA1UEAwwWUmVjcmFmdCBTdGFnaW5nIERldiBDQTEQMA4GA1UECgwHUmVjcmFmdDELMAkGA1UEBhMCVVMwHhcNMjYwNjEyMTk0MzUwWhcNMjcwNjEyMTk0MzUwWjA3MQswCQYDVQQGEwJVUzETMBEGA1UEChMKUmVjcmFmdCBBSTETMBEGA1UEAxMKcmVjcmFmdC5haTBZMBMGByqGSM49AgEGCCqGSM49AwEHA0IABEppNVsAKyD8N4bct47Fh0gP9UDoQUbvcTo6Sdv4oiIIUnKBFTPi543bP+3aphvoIhS9LxG+A6KIKV+iqxi3DzWjdTBzMAwGA1UdEwEB/wQCMAAwDgYDVR0PAQH/BAQDAgbAMBMGA1UdJQQMMAoGCCsGAQUFBwMEMB0GA1UdDgQWBBQvMekF6f3pIvXLgg8drwyQyyFd/TAfBgNVHSMEGDAWgBQCCyo4Gsqql0r/+b+TFmjtlHh5tzAKBggqhkjOPQQDAgNIADBFAiBTyEpbRpe++TxJCBUU2RrHr1ib1p7waxPZFlNDD4HnUAIhALQPgGQShEPg3SvZlGQ3LQdlpbdYgLL9BkY33mKUXjLMWQG9MIIBuTCCAV+gAwIBAgIJAJz5aDtPoBNvMAoGCCqGSM49BAMCMEAxHzAdBgNVBAMMFlJlY3JhZnQgU3RhZ2luZyBEZXYgQ0ExEDAOBgNVBAoMB1JlY3JhZnQxCzAJBgNVBAYTAlVTMB4XDTI2MDYxMjE5NDAxNloXDTI4MDYxMTE5NDAxNlowQDEfMB0GA1UEAwwWUmVjcmFmdCBTdGFnaW5nIERldiBDQTEQMA4GA1UECgwHUmVjcmFmdDELMAkGA1UEBhMCVVMwWTATBgcqhkjOPQIBBggqhkjOPQMBBwNCAARD0hAGVxVspoo9itBJ86Ev/TSzvFQMLtGKci4s78jWT33L3KHqhYX2Q/Fo/63HW/U944vfKtWq4nvfQfRkaIPKo0IwQDAPBgNVHRMBAf8EBTADAQH/MA4GA1UdDwEB/wQEAwIBhjAdBgNVHQ4EFgQUAgsqOBrKqpdK//m/kxZo7ZR4ebcwCgYIKoZIzj0EAwIDSAAwRQIgVDA0iYuVgN5CGOAX5mKpNuBy7NKqY4nDdDaVD+G7zcUCIQD07xwub/F+hUuoHiO11u4fOLdYv6nZE34NEaTClizBW6FjcGFkWQOkAAAAAAAAAAAAAAAAAAAAAAAAAAAAAAAAAAAAAAAAAAAAAAAAAAAAAAAAAAAAAAAAAAAAAAAAAAAAAAAAAAAAAAAAAAAAAAAAAAAAAAAAAAAAAAAAAAAAAAAAAAAAAAAAAAAAAAAAAAAAAAAAAAAAAAAAAAAAAAAAAAAAAAAAAAAAAAAAAAAAAAAAAAAAAAAAAAAAAAAAAAAAAAAAAAAAAAAAAAAAAAAAAAAAAAAAAAAAAAAAAAAAAAAAAAAAAAAAAAAAAAAAAAAAAAAAAAAAAAAAAAAAAAAAAAAAAAAAAAAAAAAAAAAAAAAAAAAAAAAAAAAAAAAAAAAAAAAAAAAAAAAAAAAAAAAAAAAAAAAAAAAAAAAAAAAAAAAAAAAAAAAAAAAAAAAAAAAAAAAAAAAAAAAAAAAAAAAAAAAAAAAAAAAAAAAAAAAAAAAAAAAAAAAAAAAAAAAAAAAAAAAAAAAAAAAAAAAAAAAAAAAAAAAAAAAAAAAAAAAAAAAAAAAAAAAAAAAAAAAAAAAAAAAAAAAAAAAAAAAAAAAAAAAAAAAAAAAAAAAAAAAAAAAAAAAAAAAAAAAAAAAAAAAAAAAAAAAAAAAAAAAAAAAAAAAAAAAAAAAAAAAAAAAAAAAAAAAAAAAAAAAAAAAAAAAAAAAAAAAAAAAAAAAAAAAAAAAAAAAAAAAAAAAAAAAAAAAAAAAAAAAAAAAAAAAAAAAAAAAAAAAAAAAAAAAAAAAAAAAAAAAAAAAAAAAAAAAAAAAAAAAAAAAAAAAAAAAAAAAAAAAAAAAAAAAAAAAAAAAAAAAAAAAAAAAAAAAAAAAAAAAAAAAAAAAAAAAAAAAAAAAAAAAAAAAAAAAAAAAAAAAAAAAAAAAAAAAAAAAAAAAAAAAAAAAAAAAAAAAAAAAAAAAAAAAAAAAAAAAAAAAAAAAAAAAAAAAAAAAAAAAAAAAAAAAAAAAAAAAAAAAAAAAAAAAAAAAAAAAAAAAAAAAAAAAAAAAAAAAAAAAAAAAAAAAAAAAAAAAAAAAAAAAAAAAAAAAAAAAAAAAAAAAAAAAAAAAAAAAAAAAAAAAAAAAAAAAAAAAAAAAAAAAAAAAAAAAAAAAAAAAAAAAAAAAAAAAAAAAAAAAAAAAAAAAAAAAAAAAAAAAAAAAAAAAAAAAAAAAAAAAAAAAAAAAAAAAAAAAAAAAAAAAAAAAAAAAAAAAAAAAAAAAAAAAAAAAAAAAAAAAAAAAAAAAAAAAAAAAAAAD2WEB5jGT/XnOnbbtZgl/5DgbC725pIsKHuiXPGbE+DLeZKVJxGgLKXL4o2XVFCj+pe5IU8vXtEKvirBzaa8KGYtbV</c2pa:manifest></metadata><path fill="#FD7120" d="M91.9774 498.778C90.6293 441.239 112.609 381.54 143.282 333.719C169.068 293.518 204.127 254.024 247.654 299.778C278.916 332.639 296.177 369.236 306.797 412.926C329.29 413.483 358.865 422.07 379.41 431.081C387.5 434.629 394.746 438.532 402.529 442.407C440.037 410.758 498.07 383.166 548.472 384.998C582.821 386.247 584.205 430.411 580.708 455.249C573.683 516.161 551.109 577.144 509.263 622.778C511.227 637.82 515.305 654.704 515.58 669.842C518.604 667.641 521.588 665.343 524.887 663.59C554.331 628.474 596.372 605.166 640.489 594.114C649.595 591.833 658.96 589.543 668.328 588.738C680.74 587.67 696.138 586.365 706.415 594.868C724.228 609.604 740.649 674.77 745.057 698.365C747.677 712.388 749.31 726.773 750.375 740.992C751.628 757.707 752.238 775.121 751.437 791.863C751.389 801.911 750.32 812.027 749.253 822.01C742.619 884.041 716.214 941.88 671.877 985.899C657.238 1000.26 641.124 1013.03 623.803 1024L261.254 1024L249.832 1024L94.3605 1024C48.3749 986.323 30.0548 924.031 40.3199 866.516C49.5392 815.797 74.9915 769.449 112.842 734.453C125.058 723.244 135.273 716.118 148.795 706.69C142.788 702.441 136.035 698.967 129.982 694.602C94.7077 669.168 59.8219 636.629 44.8898 594.694C41.8432 586.138 40.6869 576.884 40.0395 567.974C39.5182 551.016 44.7983 541.599 56.5101 529.507C66.1142 519.591 80.5704 506.428 91.9774 498.778Z"/><path fill="#FCE4C6" d="M40.0395 567.974C94.8294 578.724 141.867 517.226 197.784 538.58C231.447 551.435 246.566 591.007 255.929 623.248C260.585 620.778 264.404 620.244 269.669 621.208C279.095 622.934 294.679 626.639 299.076 636.403C309.113 631.139 317.094 625.323 326.63 619.331C350.033 604.624 377.378 591.405 405.362 600.312C433.503 609.27 448.315 632.338 461.776 656.873C468.931 669.913 475.176 681.132 486.469 691.292C476.949 700.049 467.803 709.205 459.056 718.735C454.544 723.67 440.874 741.002 436.968 743.601C434.965 748.945 420.713 766.859 416.632 772.666C360.667 852.297 332.014 955.235 261.254 1024L249.832 1024L94.3605 1024C48.3749 986.323 30.0548 924.031 40.3199 866.516C49.5392 815.797 74.9915 769.449 112.842 734.453C125.058 723.244 135.273 716.118 148.795 706.69C142.788 702.441 136.035 698.967 129.982 694.602C94.7077 669.168 59.8219 636.629 44.8898 594.694C41.8432 586.138 40.6869 576.884 40.0395 567.974Z"/><path fill="#FD7120" d="M148.795 706.69C153.822 708.797 160.253 712.728 165.322 715.312C173.203 719.329 181.063 723.264 189 727.176C160.051 749.229 135.172 780.789 129.959 817.942C125.369 850.656 139.157 883.408 159.683 909.7C179.274 934.793 210.788 961.667 240.733 974.62C241.055 974.759 241.407 974.584 241.718 974.484C243.55 991.084 244.466 1008.01 249.832 1024L94.3605 1024C48.3749 986.323 30.0548 924.031 40.3199 866.516C49.5392 815.797 74.9915 769.449 112.842 734.453C125.058 723.244 135.273 716.118 148.795 706.69Z"/><path fill="#E65C1C" d="M327.68 758.487C370.871 759.283 396.05 756.546 436.968 743.601C434.965 748.945 420.713 766.859 416.632 772.666C360.667 852.297 332.014 955.235 261.254 1024L249.832 1024C244.466 1008.01 243.55 991.084 241.718 974.484C237.934 915.937 260.847 849.102 293.149 800.95C303.571 785.413 315.194 772.301 327.68 758.487Z"/><path fill="#383838" d="M255.929 623.248C260.585 620.778 264.404 620.244 269.669 621.208C279.095 622.934 294.679 626.639 299.076 636.403C298.441 649.529 288.587 652.271 277.633 654.25C275.822 659.451 274.685 664.957 278.944 668.907C287.061 676.436 295.107 670.508 302.955 669.621C310.696 670.767 309.07 681.319 303.825 683.838C289.591 690.674 273.228 685.314 264.412 672.926C249.262 677.135 233.951 674.108 225.04 659.801C222.392 655.548 223.29 649.93 228.369 647.98C235.316 645.313 239.754 658.343 246.145 659.801C252.938 661.785 255.041 660.962 261.148 658.678L264.008 650.149C255.73 641.868 249.736 635.123 255.929 623.248Z"/><path fill="#383838" d="M182.055 562.747C196.996 560.632 210.8 571.095 212.8 586.053C214.801 601.01 204.232 614.733 189.26 616.619C174.449 618.484 160.906 608.054 158.927 593.258C156.948 578.462 167.274 564.839 182.055 562.747Z"/><path fill="#383838" d="M373.618 620.238C388.107 617.46 402.108 626.941 404.906 641.426C407.704 655.911 398.241 669.925 383.76 672.743C369.251 675.566 355.205 666.081 352.402 651.568C349.598 637.056 359.102 623.022 373.618 620.238Z"/><path fill="#FCE4C6" d="M524.887 663.59C554.331 628.474 596.372 605.166 640.489 594.114C649.595 591.833 658.96 589.543 668.328 588.738C680.74 587.67 696.138 586.365 706.415 594.868C724.228 609.604 740.649 674.77 745.057 698.365C747.677 712.388 749.31 726.773 750.375 740.992C751.628 757.707 752.238 775.121 751.437 791.863C748.723 796.552 745.413 803.274 740.451 805.612C730.14 810.469 722.275 802.324 717.061 794.41C713.347 788.77 709.372 782.914 705.344 777.59C695.251 764.394 683.419 752.624 670.171 742.6C639.839 719.682 602.983 707.045 564.97 706.527C545.973 706.269 512.75 714.29 518.628 680.477C519.644 674.636 522.831 669.171 524.887 663.59Z"/><path fill="#383838" d="M530.8 421.687C542.272 420.127 546.631 431.271 546.44 440.686C545.566 483.955 525.905 539.299 496.529 571.366C494.244 561.757 491.779 553.722 488.576 544.396C481.894 525.636 472.221 508.081 459.932 492.412C455.291 486.566 449.433 480.331 444.45 474.563C444.944 473.845 445.454 473.139 445.982 472.446C462.607 450.634 503.619 425.322 530.8 421.687Z"/><path fill="#383838" d="M207.16 324.082C212.388 324.112 217.729 325.792 221.359 329.551C240.426 349.299 253.125 386.877 254.62 413.039C249.586 415.783 235.605 417.708 228.734 419.614C207.508 425.502 191.606 432.909 173.145 444.581C163.948 450.11 154.025 458.063 145.092 464.44C145.213 427.923 172.829 340.594 207.16 324.082Z"/></svg>